<svg
    xmlns="http://www.w3.org/2000/svg"
>
    <g>
    <path fill="#fff"
        d="M361.06 178.18c.55-.52 1.09-1.04 1.63-1.58 16.69-16.5 26.09-39 26.09-62.47.14-48.76-39.43-88.58-88.21-88.72h-.26c-48.66 0-88.32 39.52-88.45 88.21a88.189 88.189 0 0 0 26.81 63.62L166.9 300.73a88.295 88.295 0 0 0-24.07-3.4h-.25c-48.66 0-88.32 39.52-88.45 88.21s39.43 88.57 88.2 88.71h.25c41.04 0 75.68-28.13 85.6-66.14l142.53.41c9.82 38.01 44.35 66.23 85.41 66.35h.27c48.85-.51 88.04-40.53 87.53-89.38-.5-48.04-39.25-86.9-87.29-87.53h-.24a87.926 87.926 0 0 0-24.61 3.46m-199.3-187.74c.15-37.37 30.46-67.59 67.83-67.64h.2c37.46.56 67.37 31.38 66.81 68.83-.55 36.74-30.26 66.37-67 66.82h-.23c-37.43-.16-67.67-30.58-67.61-68.01zm-89.92 339.95h-.19c-37.46-.56-67.37-31.38-66.81-68.84.55-36.75 30.26-66.37 67.01-66.81h.19c37.46.56 67.37 31.38 66.81 68.84-.55 36.74-30.26 66.37-67.01 66.81zm270.06-144.07c-27.55 15.69-44.61 44.92-44.72 76.62v1.72l-136.9-.39v-1.45a88.54 88.54 0 0 0-44.96-77.26l69.12-118.89a87.975 87.975 0 0 0 44.9 12.42h.26c15.47.03 30.68-4.01 44.08-11.73m159.8 243.93a67.36 67.36 0 0 1-47.82 19.73h-.2c-37.46-.56-67.37-31.38-66.81-68.84.55-36.75 30.26-66.37 67.01-66.81h.19c37.46.11 67.75 30.56 67.64 68.02a67.818 67.818 0 0 1-20.01 47.91v-.01z"
    />
    </g>
    <g>
    <path fill="#27ae5f"
        d="M542.02 155.38c-9.6-16.78-30.99-22.6-47.77-12.99-13.47 7.71-20.25 23.36-16.67 38.46l-164.53 94.36a23.873 23.873 0 0 0-26.6.76l-163.92-95.26c4.17-18.88-7.75-37.56-26.63-41.73-18.88-4.17-37.56 7.75-41.73 26.63-4.17 18.88 7.75 37.56 26.63 41.73 11.3 2.5 23.11-.76 31.54-8.69l164.14 95.39c0 .43-.04.86-.04 1.29a23.89 23.89 0 0 0 13.85 21.73l-.54 189.14c-18.43 5.83-28.65 25.5-22.82 43.93 5.83 18.43 25.5 28.65 43.93 22.82 18.43-5.83 28.65-25.5 22.82-43.93a35.005 35.005 0 0 0-23.31-22.97l.54-189.27a23.889 23.889 0 0 0 13.27-21.32c0-.93-.05-1.85-.16-2.78l163.99-94.05c14.25 13.06 36.4 12.09 49.46-2.16 10.31-11.24 12.15-27.87 4.55-41.09z"
    />
    </g>
</svg>